<svg width="19" height="19" xmlns="http://www.w3.org/2000/svg" xmlns:xlink="http://www.w3.org/1999/xlink" xml:space="preserve" overflow="hidden"><g transform="translate(-630 -618)"><path d="M9.20312 18.0611C9.02129 18.0018 8.70957 17.6826 8.65391 17.4934 8.62051 17.3746 8.60938 16.1723 8.60938 12.4094L8.60938 7.47754 7.61484 8.46836C6.55352 9.52969 6.48672 9.57793 6.13789 9.57793 5.50703 9.57793 5.07656 8.91738 5.33633 8.34219 5.39199 8.22344 5.89668 7.69648 7.24004 6.36055 9.19199 4.41973 9.15488 4.45312 9.50742 4.45312 9.84883 4.45312 9.85625 4.45684 11.7785 6.37539 12.992 7.58516 13.6117 8.23086 13.66 8.33105 13.7527 8.52773 13.7527 8.87656 13.66 9.07324 13.5152 9.38125 13.2035 9.57793 12.8584 9.57793 12.5133 9.57793 12.4428 9.52969 11.3852 8.46836L10.3906 7.47754 10.3906 12.4094C10.3906 16.1129 10.3795 17.3783 10.3461 17.4859 10.283 17.7049 10.0195 17.9795 9.80801 18.05 9.61133 18.1168 9.39238 18.1205 9.20312 18.0611Z" fill="#29C1F8" transform="matrix(1 0 0 -1 630 637)"/><path d="M1.48438 10.3424C1.29141 10.2793 0.99082 9.96387 0.935156 9.75977 0.898047 9.62988 0.890625 8.72441 0.898047 5.80762L0.90918 2.02246 1.02793 1.77383C1.19121 1.42871 1.39902 1.21348 1.73672 1.04648L2.01875 0.90918 9.5 0.90918 16.9812 0.90918 17.2633 1.04648C17.601 1.21348 17.8088 1.42871 17.9721 1.77383L18.0908 2.02246 18.102 5.80762C18.1094 8.63906 18.102 9.63359 18.0686 9.75234 18.0055 9.97871 17.7457 10.257 17.5268 10.3313 17.1668 10.4537 16.8773 10.3869 16.6064 10.1123 16.4877 9.99727 16.4023 9.87109 16.3727 9.77461 16.3393 9.65957 16.3281 8.76523 16.3281 6.14531L16.3281 2.67188 9.5 2.67188 2.67188 2.67188 2.67188 6.14531C2.67188 8.72441 2.66074 9.65957 2.62734 9.76719 2.56426 9.98613 2.30078 10.2607 2.08926 10.3313 1.89258 10.398 1.67363 10.4018 1.48438 10.3424Z" fill="#29C1F8" transform="matrix(1 0 0 -1 630 637)"/></g></svg>