<svg width="42" height="29" xmlns="http://www.w3.org/2000/svg" xmlns:xlink="http://www.w3.org/1999/xlink" xml:space="preserve" overflow="hidden"><g transform="translate(-143 -209)"><path d="M15.3337 32.978C14.9826 32.7983 14.6968 32.3166 14.6968 31.9247 14.6968 31.5165 14.9826 31.0511 15.35 30.8633 15.6684 30.7 15.8072 30.7 28.2505 30.7 40.6938 30.7 40.8326 30.7 41.151 30.8633 41.5184 31.0511 41.8042 31.5165 41.8042 31.9247 41.8042 32.3329 41.5184 32.7983 41.151 32.9861 40.8326 33.1494 40.702 33.1494 28.2342 33.1494 15.848 33.1413 15.6276 33.1413 15.3337 32.978Z" fill="#29C1F8" transform="matrix(1.00468 0 0 -1 143 244.481)"/><path d="M10.4347 26.8543C9.88768 26.5685 9.65089 25.8419 9.9285 25.2866 10.002 25.1397 10.7042 24.3722 11.4962 23.5802L12.9413 22.1268 6.95648 22.1268C1.11859 22.1268 0.963457 22.1268 0.653191 21.9635 0.285771 21.7757 0 21.3104 0 20.9021 0 20.4939 0.285771 20.0285 0.653191 19.8407 0.963457 19.6774 1.11859 19.6774 6.95648 19.6774L12.9413 19.6774 11.4962 18.2322C10.7042 17.432 10.002 16.6645 9.9285 16.5176 9.43044 15.5214 10.5409 14.411 11.537 14.9091 11.8962 15.0887 16.7952 19.9713 16.9911 20.3469 17.0728 20.5184 17.1463 20.7633 17.1463 20.9021 17.1463 21.0409 17.0728 21.2859 16.9911 21.4573 16.7952 21.8329 11.8962 26.7155 11.537 26.8951 11.1941 27.0666 10.8021 27.0584 10.4347 26.8543Z" fill="#29C1F8" transform="matrix(1.00468 0 0 -1 143 244.481)"/><path d="M20.2326 25.6296C19.8815 25.4499 19.5957 24.9682 19.5957 24.5763 19.5957 24.1681 19.8815 23.7027 20.2489 23.5149 20.5673 23.3516 20.7062 23.3516 30.7 23.3516 40.6938 23.3516 40.8326 23.3516 41.151 23.5149 41.5184 23.7027 41.8042 24.1681 41.8042 24.5763 41.8042 24.9845 41.5184 25.4499 41.151 25.6377 40.8326 25.801 40.6938 25.801 30.6836 25.801 20.7388 25.7929 20.5265 25.7929 20.2326 25.6296Z" fill="#29C1F8" transform="matrix(1.00468 0 0 -1 143 244.481)"/><path d="M20.2326 18.2812C19.8815 18.1016 19.5957 17.6198 19.5957 17.2279 19.5957 16.8197 19.8815 16.3543 20.2489 16.1665 20.5673 16.0032 20.7062 16.0032 30.7 16.0032 40.6938 16.0032 40.8326 16.0032 41.151 16.1665 41.5184 16.3543 41.8042 16.8197 41.8042 17.2279 41.8042 17.6362 41.5184 18.1016 41.151 18.2893 40.8326 18.4526 40.6938 18.4526 30.6836 18.4526 20.7388 18.4445 20.5265 18.4445 20.2326 18.2812Z" fill="#29C1F8" transform="matrix(1.00468 0 0 -1 143 244.481)"/><path d="M15.3337 10.9328C14.9826 10.7532 14.6968 10.2714 14.6968 9.87951 14.6968 9.47127 14.9826 9.00587 15.35 8.81808 15.6684 8.65478 15.8072 8.65478 28.2505 8.65478 40.6938 8.65478 40.8326 8.65478 41.151 8.81808 41.5184 9.00587 41.8042 9.47127 41.8042 9.87951 41.8042 10.2878 41.5184 10.7532 41.151 10.9409 40.8326 11.1042 40.702 11.1042 28.2342 11.1042 15.848 11.0961 15.6276 11.0961 15.3337 10.9328Z" fill="#29C1F8" transform="matrix(1.00468 0 0 -1 143 244.481)"/></g></svg>