<svg width="34" height="32" xmlns="http://www.w3.org/2000/svg" xmlns:xlink="http://www.w3.org/1999/xlink" xml:space="preserve" overflow="hidden"><defs><clipPath id="clip0"><rect x="173" y="625" width="34" height="32"/></clipPath></defs><g clip-path="url(#clip0)" transform="translate(-173 -625)"><path d="M4.46474 36.3878 4.37867 36.3055 4.37867 34.1012C4.37867 32.0915 4.38241 31.8894 4.44229 31.8445 4.48345 31.8071 4.61818 31.7921 4.91009 31.7921 5.27685 31.7921 5.3255 31.7996 5.37416 31.867 5.42281 31.9306 5.43029 32.2038 5.42281 33.6558 5.41907 34.8123 5.42655 35.3811 5.45275 35.4073 5.47895 35.4335 6.05154 35.4447 7.20047 35.4447 8.35315 35.441 8.92948 35.4522 8.98188 35.4784 9.04924 35.5158 9.05673 35.557 9.05673 35.92 9.05673 36.1932 9.04176 36.3467 9.00807 36.3916 8.96317 36.4515 8.81721 36.4589 6.75512 36.4627L4.54708 36.4702 4.46474 36.3878Z" fill="#29C1F8" transform="matrix(1 0 0 -1.00637 169.849 662.742)"/><path d="M31.3542 36.4552C31.2644 36.4253 31.2494 36.3579 31.2494 35.9387 31.2494 35.5757 31.2569 35.5121 31.3168 35.4822 31.3542 35.4634 32.0952 35.4447 33.102 35.4447 34.8048 35.441 34.8235 35.441 34.8909 35.3624 34.9507 35.2876 34.9545 35.1491 34.9545 33.5922 34.9545 32.2861 34.9657 31.8857 35.0031 31.837 35.0406 31.7809 35.1042 31.7734 35.441 31.7809 35.8152 31.7921 35.834 31.7958 35.8789 31.8857 35.9462 32.0129 35.9313 36.3504 35.8676 36.414 35.834 36.4477 35.2052 36.4589 33.6109 36.4627 32.3946 36.4664 31.3767 36.4627 31.3542 36.4552Z" fill="#29C1F8" transform="matrix(1 0 0 -1.00637 169.849 662.742)"/><path d="M10.2618 32.7502C10.2206 32.724 10.2131 32.2038 10.2169 29.9171 10.2169 28.3752 10.2319 27.1028 10.2506 27.0841 10.2655 27.0691 10.4115 27.0579 10.5762 27.0654L10.8718 27.0766 10.883 27.2076C10.8905 27.2787 10.9167 27.4134 10.9467 27.507 10.9766 27.6006 11.0178 27.7839 11.0402 27.9149 11.0664 28.0497 11.1076 28.1919 11.1375 28.233 11.1675 28.2742 11.1899 28.3491 11.1899 28.3977 11.1899 28.4426 11.2236 28.5474 11.2648 28.6297 11.3059 28.7121 11.3396 28.7981 11.3396 28.8243 11.3396 28.8767 11.654 29.5167 11.7663 29.6963 11.9122 29.9246 12.032 30.108 12.0769 30.1641 12.1031 30.1941 12.1742 30.2876 12.2378 30.3662 12.4212 30.602 12.6607 30.8453 12.8478 30.9912 13.1098 31.1933 13.8022 31.5189 14.0716 31.5676 14.1427 31.5825 14.27 31.6162 14.3523 31.6424 14.5694 31.7173 15.5087 31.7734 16.5753 31.7734 17.3912 31.7734 17.5109 31.7659 17.5296 31.7135 17.5708 31.605 17.5558 13.4242 17.5109 13.2071 17.4922 13.0948 17.451 12.8703 17.4248 12.7056 17.35 12.2565 17.0431 11.785 16.74 11.6577 16.6726 11.6278 16.6165 11.5904 16.6165 11.5717 16.6165 11.5492 16.5716 11.523 16.5154 11.508 16.4555 11.4968 16.3807 11.4594 16.347 11.4257 16.3133 11.3958 16.2123 11.3621 16.1225 11.3508 16.0327 11.3396 15.9129 11.3022 15.8493 11.2723 15.7669 11.2311 15.5723 11.2086 15.1195 11.1974 14.7789 11.1899 14.4795 11.1637 14.4571 11.145 14.3935 11.0926 14.3972 10.8344 14.4608 10.782 14.4982 10.7521 16.0289 10.7446 20.213 10.7483L25.9165 10.7595 25.9277 10.9205C25.9464 11.1787 25.9239 11.1899 25.3401 11.1899 25.0594 11.1937 24.7638 11.2086 24.6815 11.2273 24.3559 11.2985 24.1874 11.3508 24.0452 11.4145 23.9629 11.4519 23.8544 11.4968 23.8095 11.508 23.6747 11.5455 23.3903 11.7475 23.2144 11.9309 22.9899 12.163 22.8813 12.4174 22.8477 12.7992 22.8364 12.9751 22.8065 13.1996 22.7878 13.2969 22.7691 13.4055 22.7541 17.2639 22.7541 22.5595L22.7541 31.6387 22.8289 31.7135C22.9038 31.7884 22.9412 31.7921 23.8506 31.7809 24.9771 31.7696 25.6882 31.7135 25.9838 31.62 26.0998 31.5788 26.2271 31.5488 26.2645 31.5488 26.2982 31.5488 26.3805 31.5152 26.4404 31.474 26.504 31.4328 26.5789 31.3991 26.6126 31.3991 26.6462 31.3991 26.7024 31.3655 26.7398 31.3243 26.7772 31.2831 26.8259 31.2494 26.8483 31.2494 26.9681 31.2457 27.8363 30.5234 28.0122 30.2764 28.0759 30.1903 28.1657 30.0706 28.2181 30.0144 28.4014 29.8011 28.4239 29.7749 28.4688 29.6776 28.495 29.6252 28.5324 29.5579 28.5511 29.5279 28.6222 29.4194 28.7794 29.0526 28.7794 28.9928 28.7794 28.9591 28.7944 28.9216 28.8169 28.9104 28.8356 28.8992 28.8767 28.8094 28.9067 28.7121 28.9366 28.6148 28.9853 28.4875 29.0189 28.4239 29.0526 28.364 29.0788 28.2817 29.0788 28.2443 29.0788 28.2068 29.1125 28.1133 29.1537 28.0309 29.1948 27.9486 29.2285 27.855 29.2285 27.8176 29.2285 27.7802 29.2622 27.6866 29.3034 27.608 29.3445 27.5332 29.3782 27.4322 29.3782 27.3872 29.3782 27.3386 29.4119 27.245 29.4531 27.1814 29.5242 27.0616 29.5317 27.0579 29.8049 27.0579 29.9957 27.0579 30.093 27.0729 30.123 27.1103 30.1754 27.1702 30.1679 32.6566 30.1155 32.7389 30.0893 32.7726 28.0684 32.7839 20.198 32.7839 14.7602 32.7839 10.288 32.7689 10.2618 32.7502Z" fill="#29C1F8" transform="matrix(1 0 0 -1.00637 169.849 662.742)"/><path d="M4.50217 11.6877C4.45351 11.6802 4.40861 11.6353 4.39738 11.5904 4.3637 11.4556 4.39364 7.11814 4.42732 7.08446 4.44603 7.06949 5.47146 7.05077 6.71021 7.04329 8.80224 7.0358 8.96691 7.03955 9.00807 7.09943 9.06421 7.17053 9.07544 7.92276 9.02304 8.00136 9.00059 8.04252 8.6488 8.05375 7.24538 8.05375 5.88313 8.05749 5.49392 8.06872 5.46023 8.10614 5.43404 8.13608 5.42281 8.70868 5.42655 9.85013 5.42655 11.276 5.41907 11.5604 5.37416 11.6203 5.32925 11.6839 5.27311 11.6952 4.95126 11.7026 4.74917 11.7026 4.54708 11.6989 4.50217 11.6877Z" fill="#29C1F8" transform="matrix(1 0 0 -1.00637 169.849 662.742)"/><path d="M34.9994 11.669C34.9657 11.6353 34.9545 11.1937 34.9545 9.91749 34.9545 8.50284 34.947 8.19971 34.9021 8.13608 34.8497 8.06872 34.7823 8.06498 33.0795 8.05749 31.6948 8.05001 31.3056 8.03878 31.2794 8.00136 31.2382 7.93025 31.242 7.19299 31.2869 7.10691 31.3243 7.03955 31.3917 7.0358 33.5847 7.0358L35.8452 7.0358 35.8863 7.15182C35.9425 7.31275 35.9425 11.538 35.8901 11.6428 35.8527 11.7064 35.8078 11.7139 35.4485 11.7139 35.1828 11.7139 35.0293 11.6989 34.9994 11.669Z" fill="#29C1F8" transform="matrix(1 0 0 -1.00637 169.849 662.742)"/><path d="M17.6382 0.280684C17.6382 0.116016 17.6456 0.0523943 17.6531 0.142213 17.6606 0.228289 17.6606 0.363018 17.6531 0.441609 17.6456 0.516458 17.6382 0.445351 17.6382 0.280684Z" fill="#29C1F8" transform="matrix(1 0 0 -1.00637 169.849 662.742)"/><path d="M23.525 0.415412C23.4876 0.355533 23.54 0.344305 23.8768 0.333078 24.1388 0.321851 24.1949 0.329336 24.1949 0.374245 24.1949 0.419154 24.1276 0.434124 23.8693 0.441609 23.6897 0.445351 23.5363 0.434124 23.525 0.415412Z" fill="#29C1F8" transform="matrix(1 0 0 -1.00637 169.849 662.742)"/><path d="M24.6141 0.426639C24.5692 0.38173 24.6291 0.33682 24.7376 0.33682 24.7975 0.33682 24.8536 0.35179 24.8648 0.370502 24.9023 0.430382 24.6702 0.482776 24.6141 0.426639Z" fill="#29C1F8" transform="matrix(1 0 0 -1.00637 169.849 662.742)"/><path d="M25.5048 0.411669C25.4936 0.392957 25.5048 0.363018 25.5347 0.35179 25.6208 0.321851 25.9165 0.35179 25.9165 0.392957 25.9165 0.445351 25.5347 0.464064 25.5048 0.411669Z" fill="#29C1F8" transform="matrix(1 0 0 -1.00637 169.849 662.742)"/><path d="M27.2263 0.411669C27.1926 0.359275 27.2525 0.348048 27.608 0.321851 27.8513 0.306881 27.9149 0.314366 27.9336 0.355533 27.9449 0.385472 27.9411 0.415412 27.9262 0.426639 27.87 0.460321 27.2488 0.445351 27.2263 0.411669Z" fill="#29C1F8" transform="matrix(1 0 0 -1.00637 169.849 662.742)"/><path d="M29.135 0.411669C29.1013 0.359275 29.1612 0.344305 29.498 0.325593 29.715 0.310623 29.7899 0.318108 29.8049 0.355533 29.8123 0.38173 29.8123 0.415412 29.8011 0.426639 29.76 0.464064 29.1612 0.452836 29.135 0.411669Z" fill="#29C1F8" transform="matrix(1 0 0 -1.00637 169.849 662.742)"/><path d="M30.1829 0.411669C30.1716 0.392957 30.1829 0.363018 30.2128 0.35179 30.2989 0.321851 30.5571 0.35179 30.5571 0.392957 30.5571 0.445351 30.2128 0.464064 30.1829 0.411669Z" fill="#29C1F8" transform="matrix(1 0 0 -1.00637 169.849 662.742)"/><path d="M31.2045 0.333078C31.1222 0.239517 31.1147 0.217062 31.1596 0.19835 31.1933 0.187122 31.2345 0.134728 31.2532 0.0860763 31.2906-0.0149698 31.3842-0.0112273 31.3767 0.0860763 31.3767 0.123501 31.3729 0.217062 31.3692 0.299396 31.3655 0.38173 31.3505 0.449094 31.3355 0.449094 31.3168 0.445351 31.2607 0.3967 31.2045 0.333078Z" fill="#29C1F8" transform="matrix(1 0 0 -1.00637 169.849 662.742)"/><path d="M26.5452 0.385472C26.5789 0.377987 26.6388 0.377987 26.6762 0.385472 26.7099 0.3967 26.6799 0.404184 26.6088 0.404184 26.5377 0.404184 26.5078 0.3967 26.5452 0.385472Z" fill="#29C1F8" transform="matrix(1 0 0 -1.00637 169.849 662.742)"/><path d="M28.4389 0.370502C28.4987 0.348048 28.5437 0.348048 28.5699 0.374245 28.5961 0.400442 28.5661 0.411669 28.48 0.407927 28.3565 0.407927 28.3528 0.404184 28.4389 0.370502Z" fill="#29C1F8" transform="matrix(1 0 0 -1.00637 169.849 662.742)"/><path d="M9.84638 0.19835C9.84638 0.0860763 9.85761 0 9.88006 0 9.92123 0 9.92123 0.116016 9.88006 0.280684 9.85387 0.377987 9.85013 0.363018 9.84638 0.19835Z" fill="#29C1F8" transform="matrix(1 0 0 -1.00637 169.849 662.742)"/><path d="M26.3094 0.224547C26.3094 0.205835 26.3281 0.187122 26.3468 0.187122 26.3693 0.187122 26.3843 0.205835 26.3843 0.224547 26.3843 0.247002 26.3693 0.261971 26.3468 0.261971 26.3281 0.261971 26.3094 0.247002 26.3094 0.224547Z" fill="#29C1F8" transform="matrix(1 0 0 -1.00637 169.849 662.742)"/><path d="M11.6802 0.142213C11.6577 0.104789 11.6465 0.0561367 11.6577 0.0374245 11.6914-0.0149698 11.8748-0.0074849 11.9534 0.0486518 12.0133 0.0935612 12.0095 0.104789 11.8748 0.157183 11.7326 0.209577 11.7214 0.209577 11.6802 0.142213Z" fill="#29C1F8" transform="matrix(1 0 0 -1.00637 169.849 662.742)"/><path d="M12.3201 0.179638C12.2341 0.0935612 12.2677 0 12.38 0 12.627 0 12.7356 0.0898188 12.5484 0.134728 12.4886 0.149698 12.4249 0.175895 12.4025 0.190865 12.38 0.209577 12.3426 0.202092 12.3201 0.179638Z" fill="#29C1F8" transform="matrix(1 0 0 -1.00637 169.849 662.742)"/><path d="M15.258 0.160925C15.243 0.149698 15.2318 0.104789 15.2318 0.0673641 15.2318-0.00374245 15.3515-0.0224547 15.5237 0.0224547 15.6472 0.0561367 15.6247 0.104789 15.4675 0.145956 15.2991 0.194607 15.2879 0.194607 15.258 0.160925Z" fill="#29C1F8" transform="matrix(1 0 0 -1.00637 169.849 662.742)"/><path d="M29.5841 0.112273C29.5691 0.0898188 29.5728 0.0523943 29.5953 0.0299396 29.6177 0.0074849 29.6402 0.0074849 29.6589 0.0374245 29.6739 0.0598792 29.6701 0.0973037 29.6477 0.119758 29.6252 0.142213 29.6028 0.142213 29.5841 0.112273Z" fill="#29C1F8" transform="matrix(1 0 0 -1.00637 169.849 662.742)"/><path d="M9.11286 0.074849C9.09789 0.0523943 9.13906 0.0374245 9.20268 0.0374245 9.2663 0.0374245 9.3187 0.0561367 9.3187 0.074849 9.3187 0.0973037 9.27753 0.112273 9.22888 0.112273 9.17649 0.112273 9.12409 0.0973037 9.11286 0.074849Z" fill="#29C1F8" transform="matrix(1 0 0 -1.00637 169.849 662.742)"/><path d="M10.1233 0.074849C10.1346 0.0561367 10.1795 0.0374245 10.2206 0.0374245 10.2581 0.0374245 10.2917 0.0561367 10.2917 0.074849 10.2917 0.0973037 10.2468 0.112273 10.1944 0.112273 10.142 0.112273 10.1084 0.0973037 10.1233 0.074849Z" fill="#29C1F8" transform="matrix(1 0 0 -1.00637 169.849 662.742)"/><path d="M13.0986 0.074849C13.0986 0.0561367 13.151 0.0374245 13.2108 0.0374245 13.2745 0.0374245 13.3231 0.0561367 13.3231 0.074849 13.3231 0.0973037 13.2745 0.112273 13.2108 0.112273 13.151 0.112273 13.0986 0.0973037 13.0986 0.074849Z" fill="#29C1F8" transform="matrix(1 0 0 -1.00637 169.849 662.742)"/><path d="M14.5956 0.074849C14.5956 0.0261971 14.734 0.0261971 14.764 0.074849 14.7789 0.0973037 14.7452 0.112273 14.6929 0.112273 14.6405 0.112273 14.5956 0.0973037 14.5956 0.074849Z" fill="#29C1F8" transform="matrix(1 0 0 -1.00637 169.849 662.742)"/><path d="M16.0551 0.074849C16.0551 0.0561367 16.1075 0.0374245 16.1674 0.0374245 16.231 0.0374245 16.2797 0.0561367 16.2797 0.074849 16.2797 0.0973037 16.231 0.112273 16.1674 0.112273 16.1075 0.112273 16.0551 0.0973037 16.0551 0.074849Z" fill="#29C1F8" transform="matrix(1 0 0 -1.00637 169.849 662.742)"/><path d="M17.0768 0.0711065C17.1292 0.0411669 17.1591 0.0411669 17.1891 0.0711065 17.219 0.101046 17.2003 0.112273 17.1217 0.112273 17.0244 0.108531 17.0169 0.104789 17.0768 0.0711065Z" fill="#29C1F8" transform="matrix(1 0 0 -1.00637 169.849 662.742)"/><path d="M19.1801 0.074849C19.1913 0.0561367 19.2437 0.0374245 19.2961 0.0374245 19.3447 0.0374245 19.3859 0.0561367 19.3859 0.074849 19.3859 0.0973037 19.3335 0.112273 19.2699 0.112273 19.2062 0.112273 19.1651 0.0973037 19.1801 0.074849Z" fill="#29C1F8" transform="matrix(1 0 0 -1.00637 169.849 662.742)"/><path d="M19.9473 0.074849C19.9473 0.0261971 20.0483 0.0261971 20.0782 0.074849 20.0895 0.0973037 20.067 0.112273 20.0258 0.112273 19.9809 0.112273 19.9473 0.0973037 19.9473 0.074849Z" fill="#29C1F8" transform="matrix(1 0 0 -1.00637 169.849 662.742)"/><path d="M20.9951 0.074849C20.9951 0.0561367 21.0213 0.0374245 21.0513 0.0374245 21.0812 0.0374245 21.1074 0.0561367 21.1074 0.074849 21.1074 0.0973037 21.0812 0.112273 21.0513 0.112273 21.0213 0.112273 20.9951 0.0973037 20.9951 0.074849Z" fill="#29C1F8" transform="matrix(1 0 0 -1.00637 169.849 662.742)"/><path d="M21.5004 0.074849C21.5153 0.0523943 21.5415 0.0449094 21.5602 0.0561367 21.6126 0.0898188 21.6014 0.112273 21.5341 0.112273 21.5041 0.112273 21.4891 0.0935612 21.5004 0.074849Z" fill="#29C1F8" transform="matrix(1 0 0 -1.00637 169.849 662.742)"/><path d="M23.9891 0.0523943C23.9891 0.0224547 24.0078 0.0074849 24.0265 0.0187122 24.049 0.0299396 24.0639 0.0561367 24.0639 0.0785914 24.0639 0.0973037 24.049 0.112273 24.0265 0.112273 24.0078 0.112273 23.9891 0.0860763 23.9891 0.0523943Z" fill="#29C1F8" transform="matrix(1 0 0 -1.00637 169.849 662.742)"/><path d="M27.7353 0.0523943C27.7353 0.0112273 27.7465 0 27.7577 0.0299396 27.769 0.0561367 27.7652 0.0898188 27.754 0.101046 27.7428 0.116016 27.7315 0.0935612 27.7353 0.0523943Z" fill="#29C1F8" transform="matrix(1 0 0 -1.00637 169.849 662.742)"/></g></svg>