<svg width="19" height="19" xmlns="http://www.w3.org/2000/svg" xmlns:xlink="http://www.w3.org/1999/xlink" xml:space="preserve" overflow="hidden"><defs><clipPath id="clip0"><rect x="664" y="621" width="19" height="19"/></clipPath></defs><g clip-path="url(#clip0)" transform="translate(-664 -621)"><path d="M1.49922 17.0518C0.786719 16.8959 0.170703 16.265 0.0371094 15.5525-0.0148437 15.2779-0.0148437 3.72207 0.0371094 3.44746 0.174414 2.72383 0.79043 2.10039 1.51777 1.94453 1.88516 1.8666 17.1148 1.8666 17.4822 1.94453 18.2096 2.10039 18.8256 2.72383 18.9629 3.44746 19.0148 3.72207 19.0148 15.2779 18.9629 15.5525 18.8256 16.2762 18.2096 16.8996 17.4822 17.0555 17.1297 17.1297 1.84434 17.126 1.49922 17.0518ZM17.46 16.0721C17.6863 15.9682 17.8496 15.8123 17.9461 15.6045 18.0203 15.4486 18.0352 15.3596 18.0352 15.0219L18.0352 14.6285 13.7898 11.6561C11.452 10.0195 9.52227 8.68359 9.5 8.68359 9.47773 8.68359 7.54805 10.0195 5.21016 11.6561L0.964844 14.6285 0.964844 15.0219C0.964844 15.3596 0.979688 15.4486 1.05391 15.6045 1.15039 15.8123 1.31367 15.9682 1.54004 16.0721 1.68105 16.1389 2.01875 16.1426 9.5 16.1426 16.9812 16.1426 17.3189 16.1389 17.46 16.0721ZM4.00781 11.3406C5.42539 10.3461 6.58691 9.51855 6.58691 9.5 6.58691 9.48145 5.42539 8.65391 4.00781 7.65937 2.59023 6.66855 1.3248 5.78164 1.19863 5.68887L0.964844 5.52559 0.964844 9.5 0.964844 13.4744 1.19863 13.3111C1.3248 13.2184 2.59023 12.3314 4.00781 11.3406ZM18.0277 7.52207 18.0166 5.54043 15.2148 7.50352C13.6748 8.5834 12.4131 9.48145 12.4131 9.5 12.4131 9.51855 13.6748 10.4166 15.2148 11.4965L18.0166 13.4596 18.0277 11.4779C18.0314 10.3906 18.0314 8.60938 18.0277 7.52207ZM8.075 8.49434C9.30332 7.6334 9.34043 7.60742 9.5 7.60742 9.65957 7.60742 9.69668 7.6334 10.925 8.49434 11.2516 8.7207 11.5373 8.90254 11.5559 8.89512 11.5781 8.88398 13.0439 7.86348 14.8178 6.62402L18.0352 4.37148 18.0352 3.97812C18.0352 3.64043 18.0203 3.55137 17.9461 3.39551 17.8496 3.1877 17.6863 3.03184 17.46 2.92793 17.3189 2.86113 16.9812 2.85742 9.5 2.85742 2.01875 2.85742 1.68105 2.86113 1.54004 2.92793 1.31367 3.03184 1.15039 3.1877 1.05391 3.39551 0.979688 3.55137 0.964844 3.64043 0.964844 3.97812L0.964844 4.37148 4.20449 6.63887C5.98203 7.88574 7.45156 8.90625 7.4627 8.90625 7.47383 8.90625 7.75215 8.7207 8.075 8.49434Z" fill="#29C1F8" transform="matrix(1 0 0 -1 664 640)"/></g></svg>