<svg width="19" height="19" xmlns="http://www.w3.org/2000/svg" xmlns:xlink="http://www.w3.org/1999/xlink" xml:space="preserve" overflow="hidden"><g transform="translate(-698 -622)"><path d="M14.391 18.9295C14.2166 18.8924 13.9717 18.8219 13.8529 18.7773 13.1404 18.5139 12.465 17.9275 12.0791 17.241 11.6746 16.5174 11.5521 15.5414 11.7637 14.7732 11.8082 14.6211 11.8268 14.4838 11.8119 14.4689 11.7971 14.4541 10.6244 13.7936 9.21055 13.0068L6.63887 11.5707 6.43477 11.7971C5.5998 12.7174 4.31211 13.0959 3.06152 12.7805 2.93906 12.7508 2.65703 12.6357 2.43066 12.5244 1.57715 12.1014 0.968555 11.3777 0.682813 10.4463 0.590039 10.142 0.578906 10.0566 0.578906 9.51855 0.575195 9.00644 0.586328 8.88398 0.660547 8.63535 0.998242 7.4627 1.84434 6.59805 2.9873 6.24922 3.28789 6.15645 3.37695 6.14531 3.91504 6.14531 4.42344 6.1416 4.55332 6.15273 4.82051 6.22695 5.41797 6.39023 6.0748 6.79102 6.44219 7.21406 6.53867 7.3291 6.63516 7.42188 6.65371 7.42188 6.67969 7.42188 11.7785 4.58672 11.8305 4.54219 11.8379 4.53848 11.8082 4.3752 11.76 4.18594 11.6486 3.71465 11.6449 3.08379 11.76 2.61992 12.1422 1.04277 13.6043-0.0667969 15.1963 0.0111328 16.0609 0.0556641 16.7809 0.363672 17.4154 0.961133 17.8422 1.36563 18.2207 2.02617 18.3729 2.63477 18.4508 2.93535 18.4396 3.92246 18.358 4.21562 17.9498 5.68516 16.7289 6.69082 15.2445 6.77988 14.2686 6.83926 13.3482 6.4793 12.6357 5.76309 12.4057 5.5293 12.3426 5.48848 12.2869 5.51445 12.2498 5.53301 11.0771 6.18242 9.68926 6.95801 7.51094 8.17148 7.16211 8.3793 7.17695 8.44238 7.18437 8.4832 7.21777 8.64277 7.25488 8.79492 7.33652 9.16602 7.33652 9.8377 7.25117 10.2051 7.21777 10.3572 7.18809 10.5205 7.18437 10.565 7.18066 10.6393 7.50723 10.8322 9.75977 12.0902L12.3389 13.5338 12.6172 13.2518C13.3371 12.5244 14.2611 12.1607 15.2445 12.2201 16.1982 12.2758 17.1074 12.7471 17.7012 13.493 17.9646 13.8232 18.2281 14.3428 18.3395 14.751 18.4545 15.1814 18.4545 16.0312 18.3395 16.458 18.0648 17.4451 17.3783 18.2615 16.4654 18.6846 15.842 18.9703 15.0293 19.0668 14.391 18.9295ZM15.5859 17.8645C16.2391 17.7123 16.8551 17.2188 17.1371 16.625 17.3189 16.2428 17.3709 16.0053 17.3709 15.5785 17.3709 14.6693 16.8551 13.8715 16.0201 13.4893 15.8754 13.4225 15.6639 13.3482 15.5562 13.326 15.2779 13.2666 14.751 13.274 14.4912 13.3408 13.6562 13.5523 12.9586 14.2686 12.7842 15.0887 12.5318 16.2836 13.2184 17.46 14.3799 17.8236 14.4838 17.857 14.6062 17.8904 14.6582 17.8979 14.8771 17.935 15.3633 17.9201 15.5859 17.8645ZM4.66836 11.7154C5.03574 11.5893 5.31035 11.4186 5.58125 11.1477 6.29375 10.4389 6.46816 9.38867 6.02656 8.46836 5.76309 7.91914 5.18047 7.44043 4.54219 7.25117 4.19707 7.14727 3.62559 7.16582 3.24336 7.28828 2.46035 7.54063 1.89629 8.1418 1.68848 8.94707 1.61426 9.23281 1.61426 9.78574 1.68848 10.0752 1.9 10.9027 2.6125 11.593 3.45117 11.7822 3.8 11.8602 4.32324 11.8305 4.66836 11.7154ZM15.5562 5.67402C16.3801 5.49961 17.0963 4.80566 17.3115 3.97441 17.382 3.70723 17.3895 3.1877 17.3301 2.89453 17.1557 2.06699 16.4209 1.33223 15.5674 1.12812 15.2297 1.0502 14.6582 1.07617 14.3502 1.18379 13.968 1.31738 13.6822 1.49551 13.415 1.7627 12.851 2.32305 12.6172 3.12461 12.7842 3.91133 12.9549 4.72402 13.6488 5.44023 14.4727 5.65547 14.7213 5.72227 15.2854 5.72969 15.5562 5.67402Z" fill="#29C1F8" transform="matrix(1 0 0 -1 698 641)"/></g></svg>