<svg width="38" height="32" xmlns="http://www.w3.org/2000/svg" xmlns:xlink="http://www.w3.org/1999/xlink" xml:space="preserve" overflow="hidden"><g transform="translate(-173 -585)"><path d="M8.37136 36.5403C6.5992 36.0762 5.18147 34.7344 4.58231 32.9707L4.34602 32.2787 4.3207 24.2196C4.29539 15.6794 4.30383 15.2997 4.68358 14.2955 5.25742 12.768 6.58232 11.5359 8.18571 11.038L8.81863 10.844 19.4938 10.844 30.169 10.844 30.8863 11.1056C31.2829 11.2406 31.823 11.5022 32.0846 11.6794 32.8019 12.152 33.6036 13.0549 33.958 13.7722 34.591 15.0634 34.5572 14.5149 34.5572 23.7976 34.5572 31.5867 34.5488 32.1437 34.4053 32.65 33.958 34.2281 32.861 35.5445 31.4264 36.2197 30.3631 36.7175 30.7091 36.7091 19.3672 36.7007 9.42622 36.7007 8.96209 36.6922 8.37136 36.5403ZM29.7133 34.515C30.7681 34.3125 31.6373 33.6458 32.093 32.6753L32.3631 32.1099 32.3631 23.7554 32.3631 15.4009 32.1352 14.9115C31.8399 14.2786 31.1816 13.595 30.574 13.2828L30.0846 13.0381 19.4516 13.0381 8.81863 13.0381 8.32917 13.2744C7.72157 13.5782 7.08022 14.2195 6.77642 14.844L6.54013 15.3166 6.54013 23.7554 6.54013 32.1943 6.78486 32.7006C7.24056 33.6205 8.13508 34.3125 9.13086 34.5066 9.66251 34.6163 29.1563 34.6163 29.7133 34.515Z" fill="#29C1F8" transform="matrix(1.01956 0 0 -1 169.773 622.686)"/><path d="M16.0254 30.0424C15.6288 29.8314 15.2997 29.4432 15.19 29.0466 15.0718 28.6162 15.0718 18.8946 15.19 18.4643 15.4431 17.5697 16.4896 17.0634 17.3419 17.4178 17.6963 17.5697 25.2744 22.7175 25.5951 23.0297 26.0508 23.4685 25.9749 24.2786 25.4601 24.65 24.2365 25.5192 17.536 30.0086 17.3335 30.093 16.9453 30.2534 16.3883 30.2365 16.0254 30.0424Z" fill="#29C1F8" transform="matrix(1.01956 0 0 -1 169.773 622.686)"/><path d="M36.7091 22.8272C36.7091 13.2237 36.7429 13.7469 36.034 12.2701 35.1986 10.5402 33.8061 9.41779 31.7302 8.79331 31.3167 8.66673 30.1859 8.64985 20.5065 8.60765L9.7469 8.56546 10.2617 8.05913C10.8777 7.45997 11.4937 7.07178 12.3376 6.76798L12.9537 6.54013 22.0001 6.51481C30.8778 6.49793 31.0635 6.49793 31.9074 6.66671 33.5867 7.01271 34.9538 7.71313 36.1353 8.84394 37.3673 10.0254 38.1775 11.3756 38.6247 13.0381L38.861 13.882 38.861 20.844C38.861 27.1985 38.8441 27.8483 38.7176 28.3377 38.4222 29.3926 37.7387 30.5065 37.0382 31.0551L36.7091 31.3251 36.7091 22.8272Z" fill="#29C1F8" transform="matrix(1.01956 0 0 -1 169.773 622.686)"/></g></svg>